<svg width="34" height="42" viewBox="0 0 34 42" fill="none" xmlns="http://www.w3.org/2000/svg">
<rect y="0.5" width="34" height="41" rx="8" fill="#D68240"/>
<path d="M23.8504 8.57812C24.3717 8.57812 24.757 8.60079 25.0064 8.64613C25.2784 8.66879 25.573 8.77079 25.8904 8.95212C26.2304 9.13346 26.4684 9.43946 26.6044 9.87012C26.7404 10.3008 26.8084 10.8788 26.8084 11.6041C26.8084 12.3295 26.7404 12.9075 26.6044 13.3381C26.4684 13.7688 26.2304 14.0748 25.8904 14.2561C25.5504 14.4148 25.2444 14.5168 24.9724 14.5621C24.723 14.5848 24.3264 14.5961 23.7824 14.5961H13.3784V18.0301H20.0764C20.6204 18.0301 21.017 18.0528 21.2664 18.0981C21.5384 18.1208 21.8444 18.2228 22.1844 18.4041C22.7737 18.7441 23.0684 19.6395 23.0684 21.0901C23.0684 22.6768 22.6377 23.6175 21.7764 23.9121C21.4137 24.0255 20.8357 24.0821 20.0424 24.0821H13.3784V30.5081C13.3784 31.0521 13.3557 31.4488 13.3104 31.6981C13.2877 31.9475 13.2728 32.2276 13.0004 32.5001C12.9058 32.5947 11.7696 32.5001 11.3524 32.5001C9.76568 32.5001 8.83635 32.0695 8.56435 31.2081C8.42835 30.8455 8.36035 30.2675 8.36035 29.4741V12.5701C8.36035 11.4141 8.57568 10.6321 9.00635 10.2241C9.43702 9.79346 10.253 9.57812 11.4544 9.57812L23.8504 8.57812Z" fill="white"/>
</svg>
