<svg width="48" height="48" viewBox="0 0 48 48" fill="none" xmlns="http://www.w3.org/2000/svg">
<circle cx="24" cy="24" r="24" fill="white"/>
<path d="M11.2568 15.1669C11.2568 14.3125 11.5569 13.6076 12.157 13.0523C12.7571 12.4969 13.5372 12.2192 14.4973 12.2192C15.4403 12.2192 16.2033 12.4926 16.7863 13.0394C17.3863 13.6033 17.6864 14.3381 17.6864 15.2438C17.6864 16.064 17.3949 16.7475 16.812 17.2943C16.2119 17.8582 15.4232 18.1401 14.4459 18.1401H14.4202C13.4772 18.1401 12.7142 17.8582 12.1313 17.2943C11.5483 16.7304 11.2568 16.0213 11.2568 15.1669ZM11.5912 37.5945V20.4726H17.3006V37.5945H11.5912ZM20.464 37.5945H26.1734V28.0339C26.1734 27.4359 26.242 26.9745 26.3791 26.6498C26.6192 26.0688 26.9835 25.5776 27.4722 25.176C27.9608 24.7744 28.5738 24.5737 29.311 24.5737C31.2313 24.5737 32.1915 25.8638 32.1915 28.444V37.5945H37.9009V27.7776C37.9009 25.2486 37.3008 23.3305 36.1006 22.0233C34.9004 20.7161 33.3145 20.0625 31.3428 20.0625C29.131 20.0625 27.4079 21.0109 26.1734 22.9076V22.9589H26.1477L26.1734 22.9076V20.4726H20.464C20.4982 21.0194 20.5154 22.7196 20.5154 25.5733C20.5154 28.427 20.4982 32.434 20.464 37.5945Z" fill="#D68240"/>
</svg>
