<svg width="109" height="42" viewBox="0 0 109 42" fill="none" xmlns="http://www.w3.org/2000/svg">
<rect y="0.5" width="34" height="41" rx="8" fill="#D68240"/>
<path d="M23.8504 8.57812C24.3717 8.57812 24.757 8.60079 25.0064 8.64613C25.2784 8.66879 25.573 8.77079 25.8904 8.95212C26.2304 9.13346 26.4684 9.43946 26.6044 9.87012C26.7404 10.3008 26.8084 10.8788 26.8084 11.6041C26.8084 12.3295 26.7404 12.9075 26.6044 13.3381C26.4684 13.7688 26.2304 14.0748 25.8904 14.2561C25.5504 14.4148 25.2444 14.5168 24.9724 14.5621C24.723 14.5848 24.3264 14.5961 23.7824 14.5961H13.3784V18.0301H20.0764C20.6204 18.0301 21.017 18.0528 21.2664 18.0981C21.5384 18.1208 21.8444 18.2228 22.1844 18.4041C22.7737 18.7441 23.0684 19.6395 23.0684 21.0901C23.0684 22.6768 22.6377 23.6175 21.7764 23.9121C21.4137 24.0255 20.8357 24.0821 20.0424 24.0821H13.3784V30.5081C13.3784 31.0521 13.3557 31.4488 13.3104 31.6981C13.2877 31.9475 13.2728 32.2276 13.0004 32.5001C12.9058 32.5947 11.7696 32.5001 11.3524 32.5001C9.76568 32.5001 8.83635 32.0695 8.56435 31.2081C8.42835 30.8455 8.36035 30.2675 8.36035 29.4741V12.5701C8.36035 11.4141 8.57568 10.6321 9.00635 10.2241C9.43702 9.79346 10.253 9.57812 11.4544 9.57812L23.8504 8.57812Z" fill="white"/>
<path d="M53.5002 8C56.2628 8 52.4482 9.28434 55.9482 12.7201C57.9829 14.7175 59.0002 17.2001 59.0002 20.1681C59.0002 23.1175 58.0295 25.6375 56.0882 27.7281C54.1469 29.8001 51.7575 30.8361 48.9202 30.8361C46.0829 30.8361 43.6655 29.8095 41.6682 27.7561C39.6895 25.7028 38.7002 23.2575 38.7002 20.4201C38.7002 18.8708 38.9802 17.4241 39.5402 16.0801C40.1002 14.7175 40.8469 13.5788 41.7802 12.6641C42.7135 11.7495 43.7869 11.0308 45.0002 10.5081C46.2135 9.98545 52.2122 8 53.5002 8ZM43.6562 20.2801C43.6562 21.9415 44.1882 23.2948 45.2522 24.3401C46.3349 25.3668 47.5389 25.8801 48.8642 25.8801C50.1895 25.8801 51.3842 25.3761 52.4482 24.3681C53.5122 23.3601 54.0442 22.0068 54.0442 20.3081C54.0442 18.6095 53.5029 17.2468 52.4202 16.2201C51.3562 15.1935 50.1615 14.6801 48.8362 14.6801C47.5109 14.6801 46.3162 15.2028 45.2522 16.2481C44.1882 17.2748 43.6562 18.6188 43.6562 20.2801Z" fill="#D68240"/>
<path d="M71.0231 9.72412C73.7858 9.72412 76.1845 10.7228 78.2191 12.7201C80.2538 14.7175 81.2711 17.2001 81.2711 20.1681C81.2711 23.1175 80.3005 25.6375 78.3591 27.7281C76.4178 29.8001 74.0285 30.8361 71.1911 30.8361C68.3538 30.8361 65.9365 29.8095 63.9391 27.7561C61.9605 25.7028 60.9711 23.2575 60.9711 20.4201C60.9711 18.8708 61.2511 17.4241 61.8111 16.0801C62.3711 14.7175 63.1178 13.5788 64.0511 12.6641C64.9845 11.7495 66.0578 11.0308 67.2711 10.5081C68.4845 9.98545 69.7351 9.72412 71.0231 9.72412ZM65.9271 20.2801C65.9271 21.9415 66.4591 23.2948 67.5231 24.3401C68.6058 25.3668 69.8098 25.8801 71.1351 25.8801C72.4605 25.8801 73.6551 25.3761 74.7191 24.3681C75.7831 23.3601 76.3151 22.0068 76.3151 20.3081C76.3151 18.6095 75.7738 17.2468 74.6911 16.2201C73.6271 15.1935 72.4325 14.6801 71.1071 14.6801C69.7818 14.6801 68.5871 15.2028 67.5231 16.2481C66.4591 17.2748 65.9271 18.6188 65.9271 20.2801Z" fill="#D68240"/>
<path d="M86.1541 9.94812L91.3341 9.97612C94.0407 9.97612 96.4207 10.9561 98.4741 12.9161C100.527 14.8575 101.554 17.2561 101.554 20.1121C101.554 22.9495 100.546 25.3855 98.5301 27.4201C96.5327 29.4548 94.1061 30.4721 91.2501 30.4721H86.1261C84.9874 30.4721 84.2781 30.2388 83.9981 29.7721C83.7741 29.3801 83.6621 28.7828 83.6621 27.9801V12.4121C83.6621 11.9641 83.6714 11.6375 83.6901 11.4321C83.7274 11.2268 83.8207 10.9841 83.9701 10.7041C84.2314 10.2001 84.9594 9.94812 86.1541 9.94812ZM91.3341 25.5161C92.6781 25.5161 93.8914 25.0215 94.9741 24.0321C96.0567 23.0241 96.5981 21.7641 96.5981 20.2521C96.5981 18.7401 96.0661 17.4801 95.0021 16.4721C93.9567 15.4455 92.7247 14.9321 91.3061 14.9321H88.6181V25.5161H91.3341Z" fill="#D68240"/>
<path d="M103.937 12.4401C103.937 12.0108 103.946 11.6935 103.965 11.4881C104.002 11.2641 104.096 11.0121 104.245 10.7321C104.506 10.2281 105.234 9.97612 106.429 9.97612C107.736 9.97612 108.51 10.3215 108.753 11.0121C108.846 11.3295 108.893 11.8148 108.893 12.4681V28.0361C108.893 28.4841 108.874 28.8108 108.837 29.0161C108.818 29.2215 108.734 29.4641 108.585 29.7441C108.324 30.2481 107.596 30.5001 106.401 30.5001C105.094 30.5001 104.329 30.1455 104.105 29.4361C103.993 29.1375 103.937 28.6615 103.937 28.0081V12.4401Z" fill="#D68240"/>
</svg>
