<svg width="220" height="74" viewBox="0 0 220 74" fill="none" xmlns="http://www.w3.org/2000/svg">
<rect width="220" height="74" rx="12" fill="white"/>
<g clip-path="url(#clip0_19_385)">
<path d="M30.8975 36.0693L14.1494 53.6163C14.3375 54.2829 14.6755 54.8976 15.1375 55.4134C15.5996 55.9293 16.1735 56.3327 16.8153 56.5928C17.4572 56.8529 18.15 56.9628 18.8409 56.9142C19.5317 56.8655 20.2023 56.6594 20.8013 56.3119L39.6461 45.5792L30.8975 36.0693Z" fill="#EA4335"/>
<path d="M47.8337 33.0866L39.6846 28.4189L30.5117 36.4684L39.7219 45.5539L47.809 40.9363C48.5254 40.5611 49.1255 39.9971 49.5441 39.3052C49.9628 38.6133 50.1842 37.8201 50.1842 37.0114C50.1842 36.2027 49.9628 35.4094 49.5441 34.7176C49.1255 34.0257 48.5254 33.4616 47.809 33.0865L47.8337 33.0866Z" fill="#FBBC04"/>
<path d="M14.1499 20.3198C14.0487 20.6941 13.9983 21.0803 14 21.468V52.4682C14.001 52.8558 14.0514 53.2417 14.1499 53.6165L31.4721 36.5188L14.1499 20.3198Z" fill="#4285F4"/>
<path d="M31.0223 36.9681L39.6835 28.4192L20.8638 17.6365C20.1557 17.2218 19.3503 17.0022 18.5298 17C16.4934 16.9961 14.7032 18.3476 14.1494 20.3073L31.0223 36.9681Z" fill="#34A853"/>
</g>
<path d="M59.9636 18.05C59.7836 17.7033 59.5336 17.4433 59.2136 17.27C58.8936 17.09 58.5236 17 58.1036 17C57.6436 17 57.2336 17.1033 56.8736 17.31C56.5136 17.5167 56.2303 17.81 56.0236 18.19C55.8236 18.57 55.7236 19.01 55.7236 19.51C55.7236 20.01 55.8236 20.4533 56.0236 20.84C56.2303 21.22 56.5136 21.5133 56.8736 21.72C57.2336 21.9267 57.6436 22.03 58.1036 22.03C58.7236 22.03 59.2269 21.8567 59.6136 21.51C60.0003 21.1633 60.2369 20.6933 60.3236 20.1H57.7136V19.19H61.5436V20.08C61.4703 20.62 61.2769 21.1167 60.9636 21.57C60.6569 22.0233 60.2536 22.3867 59.7536 22.66C59.2603 22.9267 58.7103 23.06 58.1036 23.06C57.4503 23.06 56.8536 22.91 56.3136 22.61C55.7736 22.3033 55.3436 21.88 55.0236 21.34C54.7103 20.8 54.5536 20.19 54.5536 19.51C54.5536 18.83 54.7103 18.22 55.0236 17.68C55.3436 17.14 55.7736 16.72 56.3136 16.42C56.8603 16.1133 57.4569 15.96 58.1036 15.96C58.8436 15.96 59.5003 16.1433 60.0736 16.51C60.6536 16.87 61.0736 17.3833 61.3336 18.05H59.9636ZM63.808 16.97V19.01H66.208V19.94H63.808V22.07H66.508V23H62.668V16.04H66.508V16.97H63.808ZM72.4021 16.05V16.98H70.5521V23H69.4121V16.98H67.5521V16.05H72.4021ZM77.2943 16.05V23H76.1543V16.05H77.2943ZM83.281 16.05V16.98H81.431V23H80.291V16.98H78.431V16.05H83.281ZM87.6055 23.07C86.9589 23.07 86.3622 22.92 85.8155 22.62C85.2755 22.3133 84.8455 21.89 84.5255 21.35C84.2122 20.8033 84.0555 20.19 84.0555 19.51C84.0555 18.83 84.2122 18.22 84.5255 17.68C84.8455 17.14 85.2755 16.72 85.8155 16.42C86.3622 16.1133 86.9589 15.96 87.6055 15.96C88.2589 15.96 88.8555 16.1133 89.3955 16.42C89.9422 16.72 90.3722 17.14 90.6855 17.68C90.9989 18.22 91.1555 18.83 91.1555 19.51C91.1555 20.19 90.9989 20.8033 90.6855 21.35C90.3722 21.89 89.9422 22.3133 89.3955 22.62C88.8555 22.92 88.2589 23.07 87.6055 23.07ZM87.6055 22.08C88.0655 22.08 88.4755 21.9767 88.8355 21.77C89.1955 21.5567 89.4755 21.2567 89.6755 20.87C89.8822 20.4767 89.9855 20.0233 89.9855 19.51C89.9855 18.9967 89.8822 18.5467 89.6755 18.16C89.4755 17.7733 89.1955 17.4767 88.8355 17.27C88.4755 17.0633 88.0655 16.96 87.6055 16.96C87.1455 16.96 86.7355 17.0633 86.3755 17.27C86.0155 17.4767 85.7322 17.7733 85.5255 18.16C85.3255 18.5467 85.2255 18.9967 85.2255 19.51C85.2255 20.0233 85.3255 20.4767 85.5255 20.87C85.7322 21.2567 86.0155 21.5567 86.3755 21.77C86.7355 21.9767 87.1455 22.08 87.6055 22.08ZM97.9873 23H96.8473L93.4173 17.81V23H92.2773V16.04H93.4173L96.8473 21.22V16.04H97.9873V23Z" fill="#050505"/>
<path d="M67.5036 40.288C67.1196 39.584 66.5916 39.048 65.9196 38.68C65.2476 38.312 64.4636 38.128 63.5676 38.128C62.5756 38.128 61.6956 38.352 60.9276 38.8C60.1596 39.248 59.5596 39.888 59.1276 40.72C58.6956 41.552 58.4796 42.512 58.4796 43.6C58.4796 44.72 58.6956 45.696 59.1276 46.528C59.5756 47.36 60.1916 48 60.9756 48.448C61.7596 48.896 62.6716 49.12 63.7116 49.12C64.9916 49.12 66.0396 48.784 66.8556 48.112C67.6716 47.424 68.2076 46.472 68.4636 45.256H62.7036V42.688H71.7756V45.616C71.5516 46.784 71.0716 47.864 70.3356 48.856C69.5996 49.848 68.6476 50.648 67.4796 51.256C66.3276 51.848 65.0316 52.144 63.5916 52.144C61.9756 52.144 60.5116 51.784 59.1996 51.064C57.9036 50.328 56.8796 49.312 56.1276 48.016C55.3916 46.72 55.0236 45.248 55.0236 43.6C55.0236 41.952 55.3916 40.48 56.1276 39.184C56.8796 37.872 57.9036 36.856 59.1996 36.136C60.5116 35.4 61.9676 35.032 63.5676 35.032C65.4556 35.032 67.0956 35.496 68.4876 36.424C69.8796 37.336 70.8396 38.624 71.3676 40.288H67.5036ZM80.1655 52.216C78.8855 52.216 77.7335 51.936 76.7095 51.376C75.6855 50.8 74.8775 49.992 74.2855 48.952C73.7095 47.912 73.4215 46.712 73.4215 45.352C73.4215 43.992 73.7175 42.792 74.3095 41.752C74.9175 40.712 75.7415 39.912 76.7815 39.352C77.8215 38.776 78.9815 38.488 80.2615 38.488C81.5415 38.488 82.7015 38.776 83.7415 39.352C84.7815 39.912 85.5975 40.712 86.1895 41.752C86.7975 42.792 87.1015 43.992 87.1015 45.352C87.1015 46.712 86.7895 47.912 86.1655 48.952C85.5575 49.992 84.7255 50.8 83.6695 51.376C82.6295 51.936 81.4615 52.216 80.1655 52.216ZM80.1655 49.288C80.7735 49.288 81.3415 49.144 81.8695 48.856C82.4135 48.552 82.8455 48.104 83.1655 47.512C83.4855 46.92 83.6455 46.2 83.6455 45.352C83.6455 44.088 83.3095 43.12 82.6375 42.448C81.9815 41.76 81.1735 41.416 80.2135 41.416C79.2535 41.416 78.4455 41.76 77.7895 42.448C77.1495 43.12 76.8295 44.088 76.8295 45.352C76.8295 46.616 77.1415 47.592 77.7655 48.28C78.4055 48.952 79.2055 49.288 80.1655 49.288ZM95.4702 52.216C94.1902 52.216 93.0382 51.936 92.0142 51.376C90.9902 50.8 90.1822 49.992 89.5902 48.952C89.0142 47.912 88.7262 46.712 88.7262 45.352C88.7262 43.992 89.0222 42.792 89.6142 41.752C90.2222 40.712 91.0462 39.912 92.0862 39.352C93.1262 38.776 94.2862 38.488 95.5662 38.488C96.8462 38.488 98.0062 38.776 99.0462 39.352C100.086 39.912 100.902 40.712 101.494 41.752C102.102 42.792 102.406 43.992 102.406 45.352C102.406 46.712 102.094 47.912 101.47 48.952C100.862 49.992 100.03 50.8 98.9742 51.376C97.9342 51.936 96.7662 52.216 95.4702 52.216ZM95.4702 49.288C96.0782 49.288 96.6462 49.144 97.1742 48.856C97.7182 48.552 98.1502 48.104 98.4702 47.512C98.7902 46.92 98.9502 46.2 98.9502 45.352C98.9502 44.088 98.6142 43.12 97.9422 42.448C97.2862 41.76 96.4782 41.416 95.5182 41.416C94.5582 41.416 93.7502 41.76 93.0942 42.448C92.4542 43.12 92.1342 44.088 92.1342 45.352C92.1342 46.616 92.4462 47.592 93.0702 48.28C93.7102 48.952 94.5102 49.288 95.4702 49.288ZM110.079 38.488C111.071 38.488 111.943 38.688 112.695 39.088C113.447 39.472 114.039 39.976 114.471 40.6V38.704H117.855V52.096C117.855 53.328 117.607 54.424 117.111 55.384C116.615 56.36 115.871 57.128 114.879 57.688C113.887 58.264 112.687 58.552 111.279 58.552C109.391 58.552 107.839 58.112 106.623 57.232C105.423 56.352 104.743 55.152 104.583 53.632H107.919C108.095 54.24 108.471 54.72 109.047 55.072C109.639 55.44 110.351 55.624 111.183 55.624C112.159 55.624 112.951 55.328 113.559 54.736C114.167 54.16 114.471 53.28 114.471 52.096V50.032C114.039 50.656 113.439 51.176 112.671 51.592C111.919 52.008 111.055 52.216 110.079 52.216C108.959 52.216 107.935 51.928 107.007 51.352C106.079 50.776 105.343 49.968 104.799 48.928C104.271 47.872 104.007 46.664 104.007 45.304C104.007 43.96 104.271 42.768 104.799 41.728C105.343 40.688 106.071 39.888 106.983 39.328C107.911 38.768 108.943 38.488 110.079 38.488ZM114.471 45.352C114.471 44.536 114.311 43.84 113.991 43.264C113.671 42.672 113.239 42.224 112.695 41.92C112.151 41.6 111.567 41.44 110.943 41.44C110.319 41.44 109.743 41.592 109.215 41.896C108.687 42.2 108.255 42.648 107.919 43.24C107.599 43.816 107.439 44.504 107.439 45.304C107.439 46.104 107.599 46.808 107.919 47.416C108.255 48.008 108.687 48.464 109.215 48.784C109.759 49.104 110.335 49.264 110.943 49.264C111.567 49.264 112.151 49.112 112.695 48.808C113.239 48.488 113.671 48.04 113.991 47.464C114.311 46.872 114.471 46.168 114.471 45.352ZM124.496 34.24V52H121.136V34.24H124.496ZM140.176 45.064C140.176 45.544 140.144 45.976 140.08 46.36H130.36C130.44 47.32 130.776 48.072 131.368 48.616C131.96 49.16 132.688 49.432 133.552 49.432C134.8 49.432 135.688 48.896 136.216 47.824H139.84C139.456 49.104 138.72 50.16 137.632 50.992C136.544 51.808 135.208 52.216 133.624 52.216C132.344 52.216 131.192 51.936 130.168 51.376C129.16 50.8 128.368 49.992 127.792 48.952C127.232 47.912 126.952 46.712 126.952 45.352C126.952 43.976 127.232 42.768 127.792 41.728C128.352 40.688 129.136 39.888 130.144 39.328C131.152 38.768 132.312 38.488 133.624 38.488C134.888 38.488 136.016 38.76 137.008 39.304C138.016 39.848 138.792 40.624 139.336 41.632C139.896 42.624 140.176 43.768 140.176 45.064ZM136.696 44.104C136.68 43.24 136.368 42.552 135.76 42.04C135.152 41.512 134.408 41.248 133.528 41.248C132.696 41.248 131.992 41.504 131.416 42.016C130.856 42.512 130.512 43.208 130.384 44.104H136.696ZM160.563 40.432C160.563 41.328 160.347 42.168 159.915 42.952C159.499 43.736 158.835 44.368 157.923 44.848C157.027 45.328 155.891 45.568 154.515 45.568H151.707V52H148.347V35.248H154.515C155.811 35.248 156.915 35.472 157.827 35.92C158.739 36.368 159.419 36.984 159.867 37.768C160.331 38.552 160.563 39.44 160.563 40.432ZM154.371 42.856C155.299 42.856 155.987 42.648 156.435 42.232C156.883 41.8 157.107 41.2 157.107 40.432C157.107 38.8 156.195 37.984 154.371 37.984H151.707V42.856H154.371ZM166.309 34.24V52H162.949V34.24H166.309ZM168.765 45.304C168.765 43.96 169.029 42.768 169.557 41.728C170.101 40.688 170.829 39.888 171.741 39.328C172.669 38.768 173.701 38.488 174.837 38.488C175.829 38.488 176.693 38.688 177.429 39.088C178.181 39.488 178.781 39.992 179.229 40.6V38.704H182.613V52H179.229V50.056C178.797 50.68 178.197 51.2 177.429 51.616C176.677 52.016 175.805 52.216 174.813 52.216C173.693 52.216 172.669 51.928 171.741 51.352C170.829 50.776 170.101 49.968 169.557 48.928C169.029 47.872 168.765 46.664 168.765 45.304ZM179.229 45.352C179.229 44.536 179.069 43.84 178.749 43.264C178.429 42.672 177.997 42.224 177.453 41.92C176.909 41.6 176.325 41.44 175.701 41.44C175.077 41.44 174.501 41.592 173.973 41.896C173.445 42.2 173.013 42.648 172.677 43.24C172.357 43.816 172.197 44.504 172.197 45.304C172.197 46.104 172.357 46.808 172.677 47.416C173.013 48.008 173.445 48.464 173.973 48.784C174.517 49.104 175.093 49.264 175.701 49.264C176.325 49.264 176.909 49.112 177.453 48.808C177.997 48.488 178.429 48.04 178.749 47.464C179.069 46.872 179.229 46.168 179.229 45.352ZM198.614 38.704L190.382 58.288H186.806L189.686 51.664L184.358 38.704H188.126L191.558 47.992L195.038 38.704H198.614Z" fill="#050505"/>
<defs>
<clipPath id="clip0_19_385">
<rect width="36.1837" height="40" fill="white" transform="translate(14 17)"/>
</clipPath>
</defs>
</svg>
