<svg width="48" height="48" viewBox="0 0 48 48" fill="none" xmlns="http://www.w3.org/2000/svg">
<circle cx="24" cy="24" r="24" fill="white"/>
<path d="M29.0606 13.1425V13.1377H30.3099L30.7664 13.2289C31.0707 13.2881 31.347 13.3656 31.5952 13.4616C31.8435 13.5576 32.0838 13.6695 32.316 13.7975C32.5482 13.9254 32.7589 14.0558 32.9479 14.1885C33.1353 14.3197 33.3035 14.4589 33.4524 14.606C33.5997 14.7548 33.8296 14.7932 34.1419 14.7212C34.4542 14.6492 34.7906 14.5492 35.151 14.4213C35.5114 14.2933 35.8678 14.1494 36.2201 13.9894C36.5725 13.8295 36.7871 13.7279 36.864 13.6847C36.9393 13.6399 36.9793 13.616 36.9841 13.6127L36.9889 13.6055L37.0129 13.5935L37.037 13.5815L37.061 13.5696L37.085 13.5576L37.0898 13.5504L37.097 13.5456L37.1043 13.5408L37.109 13.5336L37.1331 13.5264L37.1571 13.5216L37.1523 13.5576L37.1451 13.5935L37.1331 13.6295L37.1211 13.6655L37.109 13.6895L37.097 13.7135L37.085 13.7495C37.077 13.7735 37.069 13.8055 37.061 13.8455C37.053 13.8855 36.9769 14.0454 36.8328 14.3253C36.6886 14.6052 36.5084 14.8891 36.2922 15.177C36.076 15.4649 35.8822 15.6824 35.7108 15.8296C35.5378 15.9784 35.4233 16.0823 35.3672 16.1415C35.3112 16.2023 35.2431 16.2583 35.163 16.3095L35.0429 16.3886L35.0188 16.4006L34.9948 16.4126L34.99 16.4198L34.9828 16.4246L34.9756 16.4294L34.9708 16.4366L34.9468 16.4486L34.9227 16.4606L34.918 16.4678L34.9107 16.4726L34.9035 16.4774L34.8987 16.4846L34.8939 16.4918L34.8867 16.4966L34.8795 16.5014L34.8747 16.5086H34.9948L35.6675 16.3646C36.116 16.2687 36.5445 16.1527 36.9529 16.0167L37.6016 15.8008L37.6736 15.7768L37.7097 15.7648L37.7337 15.7528L37.7577 15.7408L37.7818 15.7288L37.8058 15.7168L37.8538 15.7096L37.9019 15.7049V15.7528L37.8899 15.7576L37.8779 15.7648L37.8731 15.772L37.8658 15.7768L37.8586 15.7816L37.8538 15.7888L37.8491 15.796L37.8418 15.8008L37.8346 15.8056L37.8298 15.8128L37.825 15.82L37.8178 15.8248L37.8058 15.8488L37.7938 15.8728L37.7866 15.8776C37.7834 15.8824 37.6817 16.0183 37.4814 16.2855C37.2812 16.5542 37.1731 16.6901 37.1571 16.6933C37.1411 16.6981 37.1187 16.7221 37.0898 16.7653C37.0626 16.8101 36.8928 16.9884 36.5805 17.3003C36.2682 17.6122 35.9623 17.8897 35.6627 18.1329C35.3616 18.3776 35.2095 18.6783 35.2063 19.035C35.2015 19.39 35.183 19.7915 35.151 20.2394C35.119 20.6872 35.0589 21.171 34.9708 21.6909C34.8827 22.2107 34.7466 22.7985 34.5624 23.4543C34.3782 24.1101 34.1539 24.7499 33.8897 25.3737C33.6254 25.9975 33.3491 26.5573 33.0608 27.0531C32.7725 27.549 32.5082 27.9688 32.2679 28.3127C32.0277 28.6566 31.7835 28.9805 31.5352 29.2844C31.2869 29.5883 30.973 29.9306 30.5934 30.3112C30.2122 30.6903 30.004 30.8983 29.9687 30.935C29.9319 30.9702 29.775 31.1014 29.4978 31.3285C29.2224 31.5572 28.926 31.7859 28.6089 32.0147C28.2934 32.2418 28.0035 32.4314 27.7392 32.5833C27.4749 32.7352 27.1562 32.9088 26.783 33.1039C26.4114 33.3007 26.0094 33.483 25.5769 33.6509C25.1444 33.8189 24.688 33.9748 24.2075 34.1188C23.7269 34.2627 23.2625 34.3747 22.814 34.4547C22.3655 34.5346 21.857 34.6026 21.2884 34.6586L20.4355 34.7426V34.7546H18.8738V34.7426L18.6696 34.7306C18.5335 34.7226 18.4214 34.7146 18.3333 34.7066C18.2452 34.6986 17.9128 34.6546 17.3362 34.5746C16.7596 34.4947 16.3071 34.4147 15.9788 34.3347C15.6505 34.2548 15.1619 34.1028 14.5132 33.8789C13.8646 33.655 13.3096 33.4286 12.8483 33.1999C12.3886 32.9728 12.1003 32.8288 11.9834 32.768C11.8681 32.7088 11.7383 32.6353 11.5942 32.5473L11.3779 32.4154L11.3732 32.4082L11.3659 32.4034L11.3587 32.3986L11.3539 32.3914L11.3299 32.3794L11.3059 32.3674L11.3011 32.3602L11.2939 32.3554L11.2866 32.3506L11.2818 32.3434L11.2771 32.3362L11.2698 32.3314H11.2578V32.2834L11.2818 32.2882L11.3059 32.2954L11.414 32.3074C11.4861 32.3154 11.6823 32.3274 12.0026 32.3434C12.323 32.3594 12.6633 32.3594 13.0237 32.3434C13.3841 32.3274 13.7525 32.2914 14.1288 32.2354C14.5052 32.1794 14.9497 32.0835 15.4622 31.9475C15.9748 31.8115 16.4457 31.65 16.875 31.4629C17.3026 31.2741 17.6069 31.1334 17.7879 31.0406C17.9673 30.9494 18.2412 30.7799 18.6096 30.532L19.1621 30.1601L19.1669 30.1529L19.1742 30.1481L19.1814 30.1433L19.1862 30.1361L19.191 30.1289L19.1982 30.1241L19.2054 30.1193L19.2102 30.1121L19.2342 30.1049L19.2582 30.1001L19.263 30.0761L19.2703 30.0521L19.2775 30.0473L19.2823 30.0401L19.0901 30.0281C18.9619 30.0201 18.8378 30.0121 18.7177 30.0041C18.5975 29.9962 18.4094 29.9602 18.1531 29.8962C17.8968 29.8322 17.6205 29.7362 17.3242 29.6083C17.0279 29.4803 16.7396 29.3284 16.4593 29.1524C16.179 28.9765 15.9764 28.8301 15.8515 28.7134C15.7281 28.5982 15.568 28.4351 15.3709 28.2239C15.1755 28.0112 15.0058 27.7929 14.8616 27.5689C14.7175 27.345 14.5797 27.0867 14.4484 26.794L14.249 26.3573L14.237 26.3214L14.2249 26.2854L14.2177 26.2614L14.2129 26.2374L14.249 26.2422L14.285 26.2494L14.5493 26.2854C14.7255 26.3094 15.0018 26.3174 15.3782 26.3094C15.7546 26.3014 16.0148 26.2854 16.159 26.2614C16.3031 26.2374 16.3912 26.2214 16.4233 26.2134L16.4713 26.2014L16.5314 26.1894L16.5914 26.1774L16.5962 26.1702L16.6034 26.1654L16.6107 26.1606L16.6155 26.1534L16.5674 26.1414L16.5194 26.1294L16.4713 26.1174L16.4233 26.1054L16.3752 26.0934C16.3432 26.0854 16.2871 26.0694 16.207 26.0454C16.1269 26.0215 15.9107 25.9335 15.5583 25.7815C15.206 25.6296 14.9257 25.4816 14.7175 25.3377C14.5087 25.1933 14.3097 25.0354 14.1216 24.865C13.9342 24.6923 13.7284 24.47 13.5042 24.1981C13.28 23.9262 13.0797 23.6102 12.9035 23.2504C12.7274 22.8905 12.5952 22.5466 12.5071 22.2187C12.4194 21.8927 12.3615 21.5595 12.3342 21.223L12.2909 20.7192L12.3149 20.724L12.339 20.7312L12.363 20.7432L12.387 20.7552L12.411 20.7672L12.4351 20.7792L12.8074 20.9471C13.0557 21.0591 13.364 21.1551 13.7324 21.235C14.1008 21.315 14.321 21.359 14.3931 21.367L14.5012 21.379H14.7175L14.7127 21.3718L14.7054 21.367L14.6982 21.3622L14.6934 21.355L14.6887 21.3478L14.6814 21.343L14.6742 21.3382L14.6694 21.331L14.6454 21.319L14.6214 21.307L14.6166 21.2998L14.6093 21.295L14.6021 21.2902L14.5973 21.283L14.5733 21.271L14.5493 21.259L14.5445 21.2518C14.5397 21.2486 14.4708 21.1974 14.3379 21.0983C14.2065 20.9975 14.0688 20.8672 13.9246 20.7072C13.7805 20.5472 13.6363 20.3793 13.4922 20.2034C13.3477 20.027 13.2191 19.8384 13.1078 19.6396C12.9957 19.4396 12.8771 19.1853 12.7522 18.8766C12.6289 18.5695 12.5352 18.26 12.4711 17.9481C12.407 17.6362 12.371 17.3283 12.363 17.0244C12.355 16.7205 12.363 16.4606 12.387 16.2447C12.411 16.0287 12.4591 15.7848 12.5312 15.5129C12.6032 15.241 12.7074 14.9531 12.8435 14.6492L13.0477 14.1933L13.0597 14.1574L13.0717 14.1214L13.079 14.1166L13.0837 14.1094L13.0885 14.1022L13.0957 14.0974L13.103 14.1022L13.1078 14.1094L13.1126 14.1166L13.1198 14.1214L13.127 14.1262L13.1318 14.1334L13.1366 14.1406L13.1438 14.1454L13.1558 14.1694L13.1678 14.1933L13.1751 14.1981L13.1798 14.2053L13.5042 14.5652C13.7204 14.8051 13.9767 15.0731 14.273 15.369C14.5693 15.6649 14.7335 15.8184 14.7655 15.8296C14.7976 15.8424 14.8376 15.8792 14.8856 15.94C14.9337 15.9992 15.0939 16.1407 15.3661 16.3646C15.6384 16.5886 15.9948 16.8485 16.4353 17.1444C16.8757 17.4403 17.3643 17.7322 17.9008 18.0201C18.4374 18.308 19.014 18.5679 19.6306 18.7998C20.2473 19.0318 20.6797 19.1837 20.928 19.2557C21.1763 19.3277 21.6007 19.4196 22.2013 19.5316C22.802 19.6436 23.2545 19.7155 23.5588 19.7475C23.8631 19.7795 24.0713 19.7979 24.1834 19.8027L24.3516 19.8075L24.3468 19.7715L24.3396 19.7355L24.2915 19.4356C24.2595 19.2357 24.2435 18.9558 24.2435 18.5959C24.2435 18.236 24.2715 17.9041 24.3276 17.6002C24.3837 17.2963 24.4677 16.9884 24.5798 16.6765C24.692 16.3646 24.8017 16.1143 24.909 15.9256C25.0179 15.7384 25.1605 15.5249 25.3366 15.285C25.5128 15.0451 25.7411 14.7972 26.0214 14.5412C26.3017 14.2853 26.622 14.0574 26.9824 13.8575C27.3428 13.6575 27.6751 13.5056 27.9794 13.4016C28.2838 13.2977 28.54 13.2297 28.7482 13.1977C28.9565 13.1657 29.0606 13.1473 29.0606 13.1425Z" fill="#D68240"/>
</svg>
